<svg xmlns="http://www.w3.org/2000/svg" width="16.217" height="17.097" viewBox="0 0 16.217 17.097">
  <path id="Union_2" data-name="Union 2" d="M-27.615,15.825a6.893,6.893,0,0,1-3.4.893A7.025,7.025,0,0,1-38,9.669,7.025,7.025,0,0,1-31.015,2.62,7.026,7.026,0,0,1-24.03,9.669a7.054,7.054,0,0,1-1.463,4.311l3.71,3.744-1.976,1.994ZM-35.9,9.669a4.917,4.917,0,0,0,4.89,4.934,4.917,4.917,0,0,0,4.89-4.934,4.917,4.917,0,0,0-4.89-4.934A4.917,4.917,0,0,0-35.9,9.669Z" transform="translate(38 -2.62)" fill="currentColor"/>
</svg>
